<svg xmlns="http://www.w3.org/2000/svg" width="1600" height="900" viewBox="0 0 1600 900" role="img" aria-labelledby="title desc">
  <title id="title">AIOps 工作台首页设计图</title><desc id="desc">异常优先、带全局 Scope Bar 的桌面工作台。</desc>
  <defs><style>
    text{font-family:Inter,"PingFang SC","Microsoft YaHei",sans-serif;fill:#172033}.muted{fill:#687386}.faint{fill:#929cab}.xs{font-size:12px}.sm{font-size:14px}.md{font-size:16px}.h2{font-size:22px;font-weight:700}.label{font-size:15px;font-weight:600}.num{font-size:28px;font-weight:700}.surface{fill:#fff;stroke:#dfe4eb}.soft{fill:#f8fafc;stroke:#dfe4eb}.blue{fill:#3157d5}.red{fill:#c9362b}.orange{fill:#c46816}.green{fill:#18864b}.blueSoft{fill:#edf2ff}.redSoft{fill:#fff0ee}.amberSoft{fill:#fff7e8}.greenSoft{fill:#edf8f2}.white{fill:#fff}
  </style></defs>
  <rect width="1600" height="900" fill="#f4f6f9"/>
  <rect width="218" height="900" fill="#fff" stroke="#dfe4eb"/>
  <rect x="18" y="18" width="34" height="34" rx="8" class="blue"/><text x="35" y="41" text-anchor="middle" class="label white">观</text><text x="66" y="34" class="label">智能运维平台</text><text x="66" y="51" class="xs faint">AIOPS</text>
  <g transform="translate(14 84)"><rect width="190" height="42" rx="8" class="blueSoft"/><rect width="3" height="20" x="0" y="11" rx="2" class="blue"/><text x="44" y="27" class="sm" fill="#3157d5" font-weight="600">工作台</text><circle cx="25" cy="21" r="7" fill="none" stroke="#3157d5" stroke-width="2"/></g>
  <text x="26" y="164" class="xs faint">核心工作</text><text x="44" y="198" class="sm">调查</text><text x="44" y="234" class="sm">资源</text><text x="44" y="270" class="sm">观测</text><text x="44" y="306" class="sm">处置</text><text x="44" y="342" class="sm">报告</text>
  <line x1="18" y1="376" x2="200" y2="376" stroke="#e7ebf0"/><text x="26" y="406" class="xs faint">系统</text><text x="44" y="440" class="sm">系统管理</text>

  <rect x="218" width="1382" height="56" fill="#fff" stroke="#dfe4eb"/><rect x="246" y="12" width="360" height="32" rx="7" class="soft"/><text x="266" y="33" class="sm faint">搜索资源、调查、告警…</text><text x="1298" y="34" class="sm muted">3 条通知</text><circle cx="1425" cy="28" r="16" class="blue"/><text x="1425" y="33" text-anchor="middle" class="xs white">管</text><text x="1452" y="34" class="sm">管理员</text>
  <rect x="218" y="56" width="1382" height="56" fill="#fff" stroke="#dfe4eb"/><text x="246" y="89" class="xs faint">当前范围</text>
  <rect x="322" y="68" width="100" height="32" rx="7" class="soft"/><text x="344" y="89" class="xs">prod</text><rect x="432" y="68" width="176" height="32" rx="7" class="soft"/><text x="451" y="89" class="xs">prod-shanghai</text><rect x="618" y="68" width="164" height="32" rx="7" class="soft"/><text x="638" y="89" class="xs">payment</text><rect x="792" y="68" width="186" height="32" rx="7" class="soft"/><text x="811" y="89" class="xs">payment-api</text><rect x="988" y="68" width="132" height="32" rx="7" class="soft"/><text x="1012" y="89" class="xs">最近 1 小时</text><text x="1502" y="89" class="sm" fill="#3157d5">刷新</text>

  <text x="246" y="158" class="h2">工作台</text><text x="246" y="184" class="sm muted">优先处理正在影响业务的问题</text><rect x="1364" y="140" width="190" height="38" rx="8" class="blue"/><text x="1459" y="164" text-anchor="middle" class="sm white" font-weight="600">发起 AI 调查</text>
  <text x="246" y="228" class="label">需要立即处理</text><text x="366" y="228" class="xs muted">按严重度、影响范围与持续时间排序</text>

  <rect x="246" y="248" width="890" height="150" rx="10" class="surface"/><rect x="246" y="248" width="5" height="150" rx="3" class="red"/><rect x="270" y="270" width="50" height="24" rx="12" class="redSoft"/><text x="295" y="287" text-anchor="middle" class="xs" fill="#c9362b" font-weight="600">严重</text><text x="335" y="288" class="md" font-weight="600">payment-api 错误率突增</text><text x="270" y="320" class="sm muted">影响 3 个服务 · 已持续 28 分钟 · 近 30 分钟存在配置变更</text><rect x="270" y="341" width="600" height="36" rx="7" fill="#f8fafc"/><text x="286" y="364" class="sm">关键证据：HTTP 5xx 12.4% · MySQL span 延迟 4.2×</text><rect x="980" y="278" width="126" height="36" rx="8" class="blue"/><text x="1043" y="301" text-anchor="middle" class="sm white">开始调查</text><text x="982" y="350" class="xs muted">Owner</text><text x="1030" y="350" class="xs">支付平台组</text><text x="982" y="372" class="xs muted">数据质量</text><text x="1048" y="372" class="xs" fill="#18864b">完整</text>
  <rect x="246" y="412" width="890" height="112" rx="10" class="surface"/><rect x="246" y="412" width="5" height="112" rx="3" class="orange"/><rect x="270" y="434" width="50" height="24" rx="12" class="amberSoft"/><text x="295" y="451" text-anchor="middle" class="xs" fill="#c46816" font-weight="600">异常</text><text x="335" y="452" class="md" font-weight="600">checkout-worker 消费积压</text><text x="270" y="484" class="sm muted">影响订单处理 · 已持续 16 分钟 · 调查 RUN-8F2A 正在执行</text><rect x="980" y="441" width="126" height="36" rx="8" class="soft"/><text x="1043" y="464" text-anchor="middle" class="sm">查看调查</text>

  <rect x="1154" y="248" width="400" height="276" rx="10" class="surface"/><text x="1178" y="282" class="label">调查与处置</text><line x1="1178" y1="298" x2="1530" y2="298" stroke="#e7ebf0"/>
  <text x="1178" y="334" class="num">4</text><text x="1212" y="334" class="sm muted">项需要我处理</text>
  <rect x="1178" y="356" width="352" height="54" rx="8" class="amberSoft"/><circle cx="1198" cy="383" r="5" class="orange"/><text x="1212" y="380" class="sm" font-weight="600">2 项动作待审批</text><text x="1212" y="399" class="xs muted">最高风险：中</text>
  <rect x="1178" y="422" width="352" height="54" rx="8" class="blueSoft"/><circle cx="1198" cy="449" r="5" class="blue"/><text x="1212" y="446" class="sm" font-weight="600">1 项调查需要补充证据</text><text x="1212" y="465" class="xs muted">RUN-8F2A · payment-api</text>
  <text x="1178" y="504" class="sm" fill="#3157d5">查看全部任务 →</text>

  <text x="246" y="568" class="label">运行态势</text>
  <g transform="translate(246 588)"><rect width="276" height="112" rx="10" class="surface"/><text x="20" y="31" class="xs muted">严重服务</text><text x="20" y="70" class="num" fill="#c9362b">3</text><text x="56" y="70" class="sm muted">/ 42</text><text x="20" y="94" class="xs">较上一小时 +1</text></g>
  <g transform="translate(536 588)"><rect width="276" height="112" rx="10" class="surface"/><text x="20" y="31" class="xs muted">请求错误率</text><text x="20" y="70" class="num">2.8%</text><text x="20" y="94" class="xs" fill="#c46816">异常服务贡献 81%</text></g>
  <g transform="translate(826 588)"><rect width="276" height="112" rx="10" class="surface"/><text x="20" y="31" class="xs muted">P95 延迟</text><text x="20" y="70" class="num">486 ms</text><text x="20" y="94" class="xs muted">近一小时 +34%</text></g>
  <g transform="translate(1116 588)"><rect width="438" height="112" rx="10" class="surface"/><text x="20" y="31" class="xs muted">数据质量</text><text x="20" y="67" class="label" fill="#18864b">5/6 数据源可用</text><text x="20" y="92" class="xs muted">K8s Events 延迟约 3 分钟；结论将标记时效性</text></g>

  <rect x="246" y="724" width="650" height="138" rx="10" class="surface"/><text x="268" y="758" class="label">最近变更</text><text x="268" y="792" class="sm">20:27 ConfigMap payment-timeout 更新</text><text x="268" y="820" class="sm">19:54 payment-api 发布 v2.18.4</text><text x="832" y="844" class="sm" fill="#3157d5">查看时间线</text>
  <rect x="914" y="724" width="640" height="138" rx="10" class="surface"/><text x="936" y="758" class="label">服务风险分布</text><rect x="936" y="786" width="350" height="14" rx="7" class="greenSoft"/><rect x="936" y="786" width="252" height="14" rx="7" class="green"/><rect x="1188" y="786" width="64" height="14" class="orange"/><rect x="1252" y="786" width="34" height="14" rx="7" class="red"/><text x="936" y="829" class="xs muted">健康 36</text><text x="1040" y="829" class="xs muted">异常 3</text><text x="1130" y="829" class="xs muted">严重 3</text><text x="1475" y="844" class="sm" fill="#3157d5">进入资源中心</text>
</svg>
